<?xml version="1.0" encoding="iso-8859-1"?>
<!-- Generator: Adobe Illustrator 19.0.0, SVG Export Plug-In . SVG Version: 6.00 Build 0)  -->
<svg version="1.1" id="Layer_1" xmlns="http://www.w3.org/2000/svg" xmlns:xlink="http://www.w3.org/1999/xlink" x="0px" y="0px"
	 viewBox="0 0 512 512" style="enable-background:new 0 0 512 512;" xml:space="preserve">
<g>
	<g>
		<circle cx="384.658" cy="204.999" r="7.837"/>
	</g>
</g>
<g>
	<g>
		<circle cx="401" cy="235.792" r="7.837"/>
	</g>
</g>
<g>
	<g>
		<circle cx="127.342" cy="204.999" r="7.837"/>
	</g>
</g>
<g>
	<g>
		<circle cx="111" cy="235.792" r="7.837"/>
	</g>
</g>
<g>
	<g>
		<path d="M412.115,73.955C371.844,25.573,317.86,0,256,0C185.218,0,125.828,32.816,84.251,94.901
			c-35.282,52.683-55.516,125.062-55.516,198.577c0,55.812,16.333,104.983,47.232,142.198c1.551,1.867,3.784,2.831,6.034,2.831
			c1.764,0,3.539-0.592,5.002-1.808c3.33-2.765,3.788-7.705,1.023-11.035c-28.943-34.858-43.617-79.331-43.617-132.186
			c0-70.488,19.268-139.688,52.866-189.856C124.142,63.5,173.491,15.673,256,15.673c57.055,0,106.871,23.62,144.067,68.308
			c2.768,3.327,7.71,3.778,11.037,1.009C414.432,82.223,414.883,77.282,412.115,73.955z"/>
	</g>
</g>
<g>
	<g>
		<path d="M436.331,108.582c-2.192-3.732-6.996-4.982-10.726-2.789c-3.732,2.192-4.981,6.994-2.789,10.726
			c28.874,49.168,44.776,112.012,44.776,176.959c0,123.226-83.055,202.849-211.592,202.849c-55.187,0-103.952-15.381-141.024-44.48
			c-3.401-2.672-8.33-2.079-11.003,1.326c-2.673,3.404-2.078,8.331,1.326,11.003C145.157,495.462,197.269,512,256,512
			c63.118,0,120.078-19.868,160.386-55.944c43.753-39.159,66.88-95.377,66.88-162.579
			C483.265,225.783,466.597,160.119,436.331,108.582z"/>
	</g>
</g>
<g>
	<g>
		<path d="M422.868,159.016c-8.662-26.88-33.579-44.94-62-44.94H151.132c-28.421,0-53.338,18.06-62,44.94
			c-9.163,28.435-12.525,59.712-9.994,92.961c2.634,34.604,18.736,55.781,49.228,64.743c25.37,7.455,57.593,5.288,88.753,3.193
			c12.991-0.874,26.424-1.777,38.887-1.929c4.719,0.057,9.84,0.223,15.651,0.507c4.365,0.204,7.999-3.123,8.21-7.445
			c0.211-4.323-3.122-7.999-7.445-8.21c-6.045-0.295-11.385-0.467-16.323-0.526c-0.062-0.001-0.124-0.001-0.186,0
			c-12.922,0.153-26.609,1.074-39.846,1.964c-72.573,4.881-116.949,3.718-121.301-53.487c-2.375-31.214,0.748-60.473,9.285-86.965
			c6.567-20.38,25.489-34.073,47.082-34.073h209.737c21.593,0,40.514,13.693,47.082,34.074c8.537,26.491,11.66,55.75,9.285,86.965
			c-3.895,51.27-39.223,58.547-107.41,54.391c-4.332-0.255-8.035,3.026-8.299,7.347c-0.263,4.32,3.026,8.035,7.346,8.299
			c9.651,0.587,19.788,1.094,29.907,1.094c17.898,0,35.73-1.587,50.674-7.122c26.381-9.772,40.986-30.908,43.41-62.82
			C435.394,218.726,432.031,187.451,422.868,159.016z"/>
	</g>
</g>
<g>
	<g>
		<path d="M170.38,214.776c-23.178,0-42.035,18.857-42.035,42.035s18.856,42.035,42.035,42.035
			c23.179,0,42.035-18.857,42.035-42.035S193.558,214.776,170.38,214.776z M170.38,283.172c-14.536,0-26.362-11.826-26.362-26.362
			s11.825-26.362,26.362-26.362c14.536,0,26.362,11.826,26.362,26.362S184.916,283.172,170.38,283.172z"/>
	</g>
</g>
<g>
	<g>
		<path d="M341.62,214.775c-23.179,0-42.035,18.857-42.035,42.035s18.857,42.035,42.035,42.035s42.035-18.857,42.035-42.035
			C383.655,233.632,364.799,214.775,341.62,214.775z M341.62,283.173c-14.536,0-26.362-11.826-26.362-26.362
			s11.826-26.362,26.362-26.362s26.362,11.826,26.362,26.362S356.157,283.173,341.62,283.173z"/>
	</g>
</g>
<g>
	<g>
		<path d="M370.003,143.375c-7.43-6.365-15.03-8.943-22.576-7.665c-9.601,1.627-15.298,9.017-17.085,11.71
			c-39.262,41.751-67.704,44.242-68.354,44.29c-2.41,0.121-4.589,1.353-5.964,3.275c-1.38-1.939-3.561-3.174-6-3.274
			c-0.284-0.018-28.842-2.264-68.363-44.291c-1.787-2.692-7.485-10.083-17.085-11.71c-7.545-1.278-15.146,1.3-22.576,7.665
			c-6.955,5.958-10.465,13.976-9.882,22.576c0.917,13.521,11.5,26.904,31.456,39.775c20.054,12.936,36.896,16.953,50.08,16.953
			c7.016,0,12.996-1.139,17.873-2.676c15.5-4.887,23.41-14.547,24.261-15.633c0.078-0.1,0.14-0.211,0.213-0.315
			c0.073,0.103,0.134,0.214,0.213,0.315c0.851,1.086,8.761,10.747,24.261,15.633c4.878,1.538,10.857,2.676,17.874,2.676
			c13.183,0,30.027-4.019,50.08-16.953c19.955-12.871,30.538-26.254,31.456-39.775C380.467,157.35,376.957,149.333,370.003,143.375z
			 M172.066,192.554c-20.414-13.168-23.995-22.985-24.313-27.665c-0.247-3.643,1.247-6.876,4.44-9.612
			c3.261-2.793,6.182-4.204,8.698-4.204c0.339,0,0.671,0.025,0.995,0.077c3.971,0.628,6.775,5.032,6.777,5.031
			c0.296,0.509,0.649,0.983,1.051,1.413c25.898,27.693,48.02,39.984,62.326,45.435C220.718,208.352,200.9,211.154,172.066,192.554z
			 M364.246,164.888c-0.318,4.68-3.898,14.497-24.314,27.665c-28.838,18.601-48.654,15.799-59.973,10.475
			c14.306-5.449,36.427-17.739,62.325-45.433c0.402-0.429,0.755-0.904,1.051-1.413c0.024-0.043,2.818-4.361,6.708-5.021
			c2.745-0.466,6.03,0.92,9.763,4.115C363,158.012,364.493,161.246,364.246,164.888z"/>
	</g>
</g>
<g>
	<g>
		<path d="M249.304,476.62c-0.224-0.268-22.382-27.715-28.337-113.767c0.241-3.872,0.612-20.076-9.148-29.279
			c-3.651-3.442-10.186-7.226-20.618-5.703c-7.424,1.086-13.774,5.278-18.361,12.125c-9.827,14.668-10.501,40.502-1.947,74.708
			c9.574,38.286,24.42,62.582,44.125,72.211c6.795,3.321,13.128,4.327,18.309,4.327c7.685,0,12.833-2.214,13.186-2.37
			c2.276-1.007,3.964-3.005,4.505-5.435C251.559,481.007,250.94,478.496,249.304,476.62z M221.505,472.636
			c-10.431-5.286-25.042-20.288-35.406-61.735c-10.279-41.102-3.591-57.178-0.238-62.182c2.084-3.111,4.643-4.907,7.606-5.339
			c0.893-0.131,1.688-0.188,2.394-0.188c2.904,0,4.332,0.968,5.19,1.771c4.275,4.005,4.507,14.029,4.253,17.2
			c-0.036,0.402-0.039,0.806-0.011,1.209c4.264,62.504,16.875,96.264,24.984,112.025C227.67,475.057,224.69,474.25,221.505,472.636z
			"/>
	</g>
</g>
<g>
	<g>
		<path d="M160.3,443.29c-0.181-0.208-18.234-22.766-23.14-93.481c0.207-3.511,0.427-17.299-8.012-25.257
			c-3.243-3.058-9.028-6.421-18.216-5.081c-6.45,0.943-12.186,4.721-16.15,10.638c-8.491,12.672-9.097,33.887-1.804,63.056
			c8.047,32.167,20.602,52.621,37.324,60.792c5.902,2.885,11.355,3.766,15.816,3.766c6.352,0,10.689-1.787,11.444-2.121
			c2.276-1.007,3.938-3.035,4.478-5.464C162.58,447.708,161.934,445.167,160.3,443.29z M136.796,439.682
			c-8.383-4.286-20.153-16.495-28.611-50.319c-8.398-33.587-3.064-46.526-0.381-50.53c1.51-2.254,3.327-3.551,5.397-3.854
			c0.676-0.099,1.267-0.141,1.783-0.141c2.219,0,3.048,0.775,3.401,1.105c2.637,2.467,3.416,9.345,3.114,13.187
			c-0.036,0.402-0.039,0.806-0.011,1.209c3.339,48.968,12.885,76.87,19.682,91.033C139.793,441.005,138.325,440.463,136.796,439.682
			z"/>
	</g>
</g>
<g>
	<g>
		<path d="M339.159,339.994c-4.588-6.847-10.937-11.039-18.362-12.125c-10.426-1.522-16.966,2.261-20.617,5.703
			c-9.76,9.203-9.389,25.407-9.148,29.279c-5.922,85.579-27.871,113.197-28.331,113.761c-1.6,1.871-2.228,4.389-1.693,6.794
			c0.541,2.429,2.203,4.458,4.478,5.464c0.352,0.156,5.499,2.37,13.186,2.37c5.181,0,11.516-1.006,18.309-4.327
			c19.705-9.63,34.551-33.925,44.125-72.211C349.66,380.497,348.987,354.662,339.159,339.994z M325.9,410.901
			c-10.364,41.447-24.974,56.448-35.406,61.735c-3.186,1.614-6.164,2.42-8.771,2.761c8.112-15.76,20.722-49.521,24.985-112.024
			c0.027-0.402,0.024-0.807-0.011-1.209c-0.344-3.979,0.239-13.415,4.238-17.185c0.859-0.811,2.289-1.786,5.206-1.786
			c0.706,0,1.499,0.057,2.392,0.188c2.964,0.433,5.523,2.23,7.607,5.339C329.491,353.723,336.178,369.799,325.9,410.901z"/>
	</g>
</g>
<g>
	<g>
		<path d="M417.217,330.107c-3.964-5.917-9.7-9.695-16.15-10.638c-9.179-1.34-14.971,2.023-18.216,5.081
			c-8.44,7.957-8.219,21.744-8.012,25.257c-4.873,70.237-22.775,93.024-23.197,93.547c-1.591,1.871-2.216,4.382-1.682,6.783
			c0.541,2.429,2.203,4.458,4.478,5.464c0.754,0.333,5.091,2.121,11.444,2.121c4.461,0,9.913-0.882,15.816-3.766
			c16.721-8.171,29.278-28.625,37.323-60.793C426.314,363.993,425.708,342.779,417.217,330.107z M403.814,389.362
			c-8.458,33.824-20.227,46.034-28.611,50.319c-1.529,0.782-2.996,1.325-4.372,1.69c6.797-14.161,16.342-42.064,19.682-91.033
			c0.027-0.402,0.024-0.807-0.012-1.209c-0.285-3.305,0.33-10.562,3.102-13.175c0.354-0.333,1.185-1.117,3.416-1.117
			c0.515,0,1.105,0.042,1.781,0.141c2.07,0.303,3.887,1.599,5.397,3.854C406.879,342.836,412.213,355.775,403.814,389.362z"/>
	</g>
</g>
<g>
	<g>
		<path d="M305.521,145.48c-0.852-2.679-3.073-4.698-5.821-5.289c-0.91-0.195-22.531-4.793-43.699-4.793s-42.789,4.598-43.699,4.793
			c-2.748,0.591-4.97,2.61-5.821,5.289c-0.851,2.679-0.201,5.61,1.702,7.679c22.244,24.179,44.675,30.936,45.618,31.212
			c0.718,0.21,1.459,0.315,2.198,0.315s1.481-0.106,2.198-0.315c0.944-0.276,23.374-7.033,45.62-31.212
			C305.721,151.09,306.371,148.16,305.521,145.48z M256.002,168.528c-4.26-1.678-14.138-6.193-25.345-15.544
			c7.336-0.999,16.473-1.913,25.343-1.913s18.007,0.914,25.343,1.913C270.128,162.344,260.244,166.857,256.002,168.528z"/>
	</g>
</g>
<g>
</g>
<g>
</g>
<g>
</g>
<g>
</g>
<g>
</g>
<g>
</g>
<g>
</g>
<g>
</g>
<g>
</g>
<g>
</g>
<g>
</g>
<g>
</g>
<g>
</g>
<g>
</g>
<g>
</g>
</svg>
