<?xml version="1.0" encoding="UTF-8" standalone="no"?>
<svg
   xmlns:dc="http://purl.org/dc/elements/1.1/"
   xmlns:cc="http://creativecommons.org/ns#"
   xmlns:rdf="http://www.w3.org/1999/02/22-rdf-syntax-ns#"
   xmlns:svg="http://www.w3.org/2000/svg"
   xmlns="http://www.w3.org/2000/svg"
   xmlns:sodipodi="http://sodipodi.sourceforge.net/DTD/sodipodi-0.dtd"
   xmlns:inkscape="http://www.inkscape.org/namespaces/inkscape"
   inkscape:version="1.0 (4035a4fb49, 2020-05-01)"
   sodipodi:docname="daruma-svgrepo-com.svg"
   xml:space="preserve"
   style="enable-background:new 0 0 512 512;"
   viewBox="0 0 512 512"
   y="0px"
   x="0px"
   id="Layer_1"
   version="1.1"><metadata
   id="metadata127"><rdf:RDF><cc:Work
       rdf:about=""><dc:format>image/svg+xml</dc:format><dc:type
         rdf:resource="http://purl.org/dc/dcmitype/StillImage" /></cc:Work></rdf:RDF></metadata><defs
   id="defs125" /><sodipodi:namedview
   inkscape:current-layer="Layer_1"
   inkscape:window-maximized="1"
   inkscape:window-y="-8"
   inkscape:window-x="-8"
   inkscape:cy="249.97647"
   inkscape:cx="298.76706"
   inkscape:zoom="1.6601562"
   inkscape:object-paths="true"
   showgrid="false"
   id="namedview123"
   inkscape:window-height="1017"
   inkscape:window-width="1920"
   inkscape:pageshadow="2"
   inkscape:pageopacity="0"
   guidetolerance="10"
   gridtolerance="10"
   objecttolerance="10"
   borderopacity="1"
   bordercolor="#666666"
   pagecolor="#ffffff" />
<g
   id="g6">
	<g
   id="g4">
		<circle
   id="circle2"
   r="7.837"
   cy="204.999"
   cx="384.658" />
	</g>
</g>
<g
   id="g12">
	<g
   id="g10">
		<circle
   id="circle8"
   r="7.837"
   cy="235.792"
   cx="401" />
	</g>
</g>
<g
   id="g18">
	<g
   id="g16">
		<circle
   id="circle14"
   r="7.837"
   cy="204.999"
   cx="127.342" />
	</g>
</g>
<g
   id="g24">
	<g
   id="g22">
		<circle
   id="circle20"
   r="7.837"
   cy="235.792"
   cx="111" />
	</g>
</g>
<g
   id="g30">
	<g
   id="g28">
		<path
   id="path26"
   d="M412.115,73.955C371.844,25.573,317.86,0,256,0C185.218,0,125.828,32.816,84.251,94.901    c-35.282,52.683-55.516,125.062-55.516,198.577c0,55.812,16.333,104.983,47.232,142.198c1.551,1.867,3.784,2.831,6.034,2.831    c1.764,0,3.539-0.592,5.002-1.808c3.33-2.765,3.788-7.705,1.023-11.035c-28.943-34.858-43.617-79.331-43.617-132.186    c0-70.488,19.268-139.688,52.866-189.856C124.142,63.5,173.491,15.673,256,15.673c57.055,0,106.871,23.62,144.067,68.308    c2.768,3.327,7.71,3.778,11.037,1.009C414.432,82.223,414.883,77.282,412.115,73.955z" />
	</g>
</g>
<g
   id="g36">
	<g
   id="g34">
		<path
   id="path32"
   d="M436.331,108.582c-2.192-3.732-6.996-4.982-10.726-2.789c-3.732,2.192-4.981,6.994-2.789,10.726    c28.874,49.168,44.776,112.012,44.776,176.959c0,123.226-83.055,202.849-211.592,202.849c-55.187,0-103.952-15.381-141.024-44.48    c-3.401-2.672-8.33-2.079-11.003,1.326c-2.673,3.404-2.078,8.331,1.326,11.003C145.157,495.462,197.269,512,256,512    c63.118,0,120.078-19.868,160.386-55.944c43.753-39.159,66.88-95.377,66.88-162.579    C483.265,225.783,466.597,160.119,436.331,108.582z" />
	</g>
</g>
<g
   id="g42">
	<g
   id="g40">
		<path
   id="path38"
   d="M422.868,159.016c-8.662-26.88-33.579-44.94-62-44.94H151.132c-28.421,0-53.338,18.06-62,44.94    c-9.163,28.435-12.525,59.712-9.994,92.961c2.634,34.604,18.736,55.781,49.228,64.743c25.37,7.455,57.593,5.288,88.753,3.193    c12.991-0.874,26.424-1.777,38.887-1.929c4.719,0.057,9.84,0.223,15.651,0.507c4.365,0.204,7.999-3.123,8.21-7.445    c0.211-4.323-3.122-7.999-7.445-8.21c-6.045-0.295-11.385-0.467-16.323-0.526c-0.062-0.001-0.124-0.001-0.186,0    c-12.922,0.153-26.609,1.074-39.846,1.964c-72.573,4.881-116.949,3.718-121.301-53.487c-2.375-31.214,0.748-60.473,9.285-86.965    c6.567-20.38,25.489-34.073,47.082-34.073h209.737c21.593,0,40.514,13.693,47.082,34.074c8.537,26.491,11.66,55.75,9.285,86.965    c-3.895,51.27-39.223,58.547-107.41,54.391c-4.332-0.255-8.035,3.026-8.299,7.347c-0.263,4.32,3.026,8.035,7.346,8.299    c9.651,0.587,19.788,1.094,29.907,1.094c17.898,0,35.73-1.587,50.674-7.122c26.381-9.772,40.986-30.908,43.41-62.82    C435.394,218.726,432.031,187.451,422.868,159.016z" />
	</g>
</g>
<g
   id="g48">
	<g
   id="g46">
		<path
   id="path44"
   d="M170.38,214.776c-23.178,0-42.035,18.857-42.035,42.035s18.856,42.035,42.035,42.035    c23.179,0,42.035-18.857,42.035-42.035S193.558,214.776,170.38,214.776z M170.38,283.172c-14.536,0-26.362-11.826-26.362-26.362    s11.825-26.362,26.362-26.362c14.536,0,26.362,11.826,26.362,26.362S184.916,283.172,170.38,283.172z" />
	</g>
</g>
<g
   id="g54">
	<g
   id="g52">
		<path
   id="path50"
   d="M341.62,214.775c-23.179,0-42.035,18.857-42.035,42.035s18.857,42.035,42.035,42.035s42.035-18.857,42.035-42.035    C383.655,233.632,364.799,214.775,341.62,214.775z M341.62,283.173c-14.536,0-26.362-11.826-26.362-26.362    s11.826-26.362,26.362-26.362s26.362,11.826,26.362,26.362S356.157,283.173,341.62,283.173z" />
	</g>
</g>
<g
   id="g60">
	<g
   id="g58">
		<path
   id="path56"
   d="M370.003,143.375c-7.43-6.365-15.03-8.943-22.576-7.665c-9.601,1.627-15.298,9.017-17.085,11.71    c-39.262,41.751-67.704,44.242-68.354,44.29c-2.41,0.121-4.589,1.353-5.964,3.275c-1.38-1.939-3.561-3.174-6-3.274    c-0.284-0.018-28.842-2.264-68.363-44.291c-1.787-2.692-7.485-10.083-17.085-11.71c-7.545-1.278-15.146,1.3-22.576,7.665    c-6.955,5.958-10.465,13.976-9.882,22.576c0.917,13.521,11.5,26.904,31.456,39.775c20.054,12.936,36.896,16.953,50.08,16.953    c7.016,0,12.996-1.139,17.873-2.676c15.5-4.887,23.41-14.547,24.261-15.633c0.078-0.1,0.14-0.211,0.213-0.315    c0.073,0.103,0.134,0.214,0.213,0.315c0.851,1.086,8.761,10.747,24.261,15.633c4.878,1.538,10.857,2.676,17.874,2.676    c13.183,0,30.027-4.019,50.08-16.953c19.955-12.871,30.538-26.254,31.456-39.775C380.467,157.35,376.957,149.333,370.003,143.375z     M172.066,192.554c-20.414-13.168-23.995-22.985-24.313-27.665c-0.247-3.643,1.247-6.876,4.44-9.612    c3.261-2.793,6.182-4.204,8.698-4.204c0.339,0,0.671,0.025,0.995,0.077c3.971,0.628,6.775,5.032,6.777,5.031    c0.296,0.509,0.649,0.983,1.051,1.413c25.898,27.693,48.02,39.984,62.326,45.435C220.718,208.352,200.9,211.154,172.066,192.554z     M364.246,164.888c-0.318,4.68-3.898,14.497-24.314,27.665c-28.838,18.601-48.654,15.799-59.973,10.475    c14.306-5.449,36.427-17.739,62.325-45.433c0.402-0.429,0.755-0.904,1.051-1.413c0.024-0.043,2.818-4.361,6.708-5.021    c2.745-0.466,6.03,0.92,9.763,4.115C363,158.012,364.493,161.246,364.246,164.888z" />
	</g>
</g>
<g
   id="g66">
	<g
   id="g64">
		<path
   id="path62"
   d="M249.304,476.62c-0.224-0.268-22.382-27.715-28.337-113.767c0.241-3.872,0.612-20.076-9.148-29.279    c-3.651-3.442-10.186-7.226-20.618-5.703c-7.424,1.086-13.774,5.278-18.361,12.125c-9.827,14.668-10.501,40.502-1.947,74.708    c9.574,38.286,24.42,62.582,44.125,72.211c6.795,3.321,13.128,4.327,18.309,4.327c7.685,0,12.833-2.214,13.186-2.37    c2.276-1.007,3.964-3.005,4.505-5.435C251.559,481.007,250.94,478.496,249.304,476.62z M221.505,472.636    c-10.431-5.286-25.042-20.288-35.406-61.735c-10.279-41.102-3.591-57.178-0.238-62.182c2.084-3.111,4.643-4.907,7.606-5.339    c0.893-0.131,1.688-0.188,2.394-0.188c2.904,0,4.332,0.968,5.19,1.771c4.275,4.005,4.507,14.029,4.253,17.2    c-0.036,0.402-0.039,0.806-0.011,1.209c4.264,62.504,16.875,96.264,24.984,112.025C227.67,475.057,224.69,474.25,221.505,472.636z    " />
	</g>
</g>
<g
   id="g72">
	<g
   id="g70">
		<path
   id="path68"
   d="M160.3,443.29c-0.181-0.208-18.234-22.766-23.14-93.481c0.207-3.511,0.427-17.299-8.012-25.257    c-3.243-3.058-9.028-6.421-18.216-5.081c-6.45,0.943-12.186,4.721-16.15,10.638c-8.491,12.672-9.097,33.887-1.804,63.056    c8.047,32.167,20.602,52.621,37.324,60.792c5.902,2.885,11.355,3.766,15.816,3.766c6.352,0,10.689-1.787,11.444-2.121    c2.276-1.007,3.938-3.035,4.478-5.464C162.58,447.708,161.934,445.167,160.3,443.29z M136.796,439.682    c-8.383-4.286-20.153-16.495-28.611-50.319c-8.398-33.587-3.064-46.526-0.381-50.53c1.51-2.254,3.327-3.551,5.397-3.854    c0.676-0.099,1.267-0.141,1.783-0.141c2.219,0,3.048,0.775,3.401,1.105c2.637,2.467,3.416,9.345,3.114,13.187    c-0.036,0.402-0.039,0.806-0.011,1.209c3.339,48.968,12.885,76.87,19.682,91.033C139.793,441.005,138.325,440.463,136.796,439.682    z" />
	</g>
</g>
<g
   id="g78">
	<g
   id="g76">
		<path
   id="path74"
   d="M339.159,339.994c-4.588-6.847-10.937-11.039-18.362-12.125c-10.426-1.522-16.966,2.261-20.617,5.703    c-9.76,9.203-9.389,25.407-9.148,29.279c-5.922,85.579-27.871,113.197-28.331,113.761c-1.6,1.871-2.228,4.389-1.693,6.794    c0.541,2.429,2.203,4.458,4.478,5.464c0.352,0.156,5.499,2.37,13.186,2.37c5.181,0,11.516-1.006,18.309-4.327    c19.705-9.63,34.551-33.925,44.125-72.211C349.66,380.497,348.987,354.662,339.159,339.994z M325.9,410.901    c-10.364,41.447-24.974,56.448-35.406,61.735c-3.186,1.614-6.164,2.42-8.771,2.761c8.112-15.76,20.722-49.521,24.985-112.024    c0.027-0.402,0.024-0.807-0.011-1.209c-0.344-3.979,0.239-13.415,4.238-17.185c0.859-0.811,2.289-1.786,5.206-1.786    c0.706,0,1.499,0.057,2.392,0.188c2.964,0.433,5.523,2.23,7.607,5.339C329.491,353.723,336.178,369.799,325.9,410.901z" />
	</g>
</g>
<g
   id="g84">
	<g
   id="g82">
		<path
   id="path80"
   d="M417.217,330.107c-3.964-5.917-9.7-9.695-16.15-10.638c-9.179-1.34-14.971,2.023-18.216,5.081    c-8.44,7.957-8.219,21.744-8.012,25.257c-4.873,70.237-22.775,93.024-23.197,93.547c-1.591,1.871-2.216,4.382-1.682,6.783    c0.541,2.429,2.203,4.458,4.478,5.464c0.754,0.333,5.091,2.121,11.444,2.121c4.461,0,9.913-0.882,15.816-3.766    c16.721-8.171,29.278-28.625,37.323-60.793C426.314,363.993,425.708,342.779,417.217,330.107z M403.814,389.362    c-8.458,33.824-20.227,46.034-28.611,50.319c-1.529,0.782-2.996,1.325-4.372,1.69c6.797-14.161,16.342-42.064,19.682-91.033    c0.027-0.402,0.024-0.807-0.012-1.209c-0.285-3.305,0.33-10.562,3.102-13.175c0.354-0.333,1.185-1.117,3.416-1.117    c0.515,0,1.105,0.042,1.781,0.141c2.07,0.303,3.887,1.599,5.397,3.854C406.879,342.836,412.213,355.775,403.814,389.362z" />
	</g>
</g>
<g
   id="g90">
	<g
   id="g88">
		<path
   id="path86"
   d="M305.521,145.48c-0.852-2.679-3.073-4.698-5.821-5.289c-0.91-0.195-22.531-4.793-43.699-4.793s-42.789,4.598-43.699,4.793    c-2.748,0.591-4.97,2.61-5.821,5.289c-0.851,2.679-0.201,5.61,1.702,7.679c22.244,24.179,44.675,30.936,45.618,31.212    c0.718,0.21,1.459,0.315,2.198,0.315s1.481-0.106,2.198-0.315c0.944-0.276,23.374-7.033,45.62-31.212    C305.721,151.09,306.371,148.16,305.521,145.48z M256.002,168.528c-4.26-1.678-14.138-6.193-25.345-15.544    c7.336-0.999,16.473-1.913,25.343-1.913s18.007,0.914,25.343,1.913C270.128,162.344,260.244,166.857,256.002,168.528z" />
	</g>
</g>
<g
   id="g92">
</g>
<g
   id="g94">
</g>
<g
   id="g96">
</g>
<g
   id="g98">
</g>
<g
   id="g100">
</g>
<g
   id="g102">
</g>
<g
   id="g104">
</g>
<g
   id="g106">
</g>
<g
   id="g108">
</g>
<g
   id="g110">
</g>
<g
   id="g112">
</g>
<g
   id="g114">
</g>
<g
   id="g116">
</g>
<g
   id="g118">
</g>
<g
   id="g120">
</g>
<path
   id="path956"
   d="m 136.9001,439.15125 c -1.71297,-0.93674 -4.1452,-2.55165 -5.40494,-3.58868 -11.18779,-9.20985 -21.66286,-34.02844 -26.11775,-61.88086 -1.07942,-6.74864 -1.25973,-9.82591 -1.01461,-17.31619 0.31629,-9.66494 1.07009,-13.02619 3.87978,-17.30013 2.70648,-4.11697 7.60037,-5.15554 10.1772,-2.15979 1.91711,2.22878 2.47106,4.8443 2.89651,13.67613 0.72834,15.11938 3.91839,38.56169 7.26487,53.38638 2.78639,12.34355 8.06416,29.04683 10.98046,34.7514 0.4815,0.94184 0.78039,1.8075 0.66421,1.92368 -0.11618,0.11618 -1.61276,-0.55519 -3.32573,-1.49194 z"
   style="fill:#ff7f2a;stroke:#ffffff;stroke-width:0.603302" /><path
   id="path958"
   d="m 224.06074,473.25647 c -13.71854,-5.64431 -24.69107,-21.43091 -33.37408,-48.01657 -6.12817,-18.76323 -9.49242,-37.04695 -9.52785,-51.78108 -0.0439,-18.25674 4.45627,-28.55174 13.04351,-29.83948 4.21243,-0.63169 6.71862,0.8046 8.60903,4.93381 1.34677,2.94172 1.64865,4.68709 2.06127,11.91725 2.41744,42.35995 10.5017,82.36204 21.86154,108.17407 2.9922,6.79892 2.92474,6.91529 -2.67342,4.612 z"
   style="fill:#ff7f2a;stroke:#ffffff;stroke-width:0.603302" /><path
   id="path960"
   d="m 285.23517,468.71415 c 11.3923,-25.88575 19.47199,-65.83495 21.89221,-108.24375 0.41262,-7.23016 0.7145,-8.97553 2.06127,-11.91725 1.87626,-4.09831 4.40405,-5.56439 8.52778,-4.94599 7.29724,1.09429 11.56481,8.45551 12.98264,22.39406 2.24643,22.08439 -7.8605,63.76637 -20.79494,85.76041 -7.08155,12.04163 -17.19651,21.05885 -25.41489,22.65669 l -1.92957,0.37516 z"
   style="fill:#ff7f2a;stroke:#ffffff;stroke-width:0.603302" /><path
   id="path962"
   d="m 371.65176,440.62659 c 0,-0.20153 0.37397,-1.09836 0.83103,-1.99297 2.87507,-5.62733 8.16948,-22.40973 10.93605,-34.66551 3.34648,-14.82469 6.53653,-38.267 7.26487,-53.38638 0.42545,-8.83183 0.9794,-11.44735 2.89651,-13.67613 1.04225,-1.21168 1.96513,-1.63595 3.55857,-1.63595 4.19973,0 6.94554,2.76747 9.20362,9.27623 1.73444,4.99941 1.62278,22.9175 -0.20272,32.53097 -6.12634,32.26263 -17.31117,54.76104 -30.79729,61.94906 -2.02985,1.0819 -3.69064,1.8022 -3.69064,1.60068 z"
   style="fill:#ff7f2a;stroke:#ffffff;stroke-width:0.603302" /><ellipse
   ry="15.661177"
   rx="15.058824"
   cy="254.79529"
   cx="169.86354"
   id="path1026"
   style="fill:#000000;stroke:#ffffff;stroke-width:1.00157" /><ellipse
   style="fill:#000000;stroke:#ffffff;stroke-width:1.00157"
   id="path1026-4"
   cx="340.93176"
   cy="255.99998"
   rx="15.058824"
   ry="15.661177" /><path
   id="path1043"
   d="m 203.89647,205.76234 c -15.00636,-2.89486 -34.75392,-13.66806 -46.4194,-25.32392 -10.49798,-10.48932 -12.1188,-18.31104 -5.1058,-24.63952 2.49388,-2.25045 6.7136,-4.56818 8.36593,-4.59508 2.11639,-0.0345 5.21596,2.35139 9.6549,7.43173 13.35667,15.28665 34.98188,32.04885 52.43856,40.64634 l 8.09185,3.98527 -4.47773,1.4331 c -5.58806,1.78847 -16.19336,2.288 -22.54831,1.06208 z"
   style="fill:#000000;stroke:#ffffff;stroke-width:0.603302" /><path
   id="path1045"
   d="m 289.02762,205.64586 c -2.2094,-0.47464 -4.86801,-1.22077 -5.90802,-1.65806 l -1.89093,-0.79507 8.01625,-3.94806 c 17.42492,-8.58187 38.95539,-25.2642 52.26283,-40.49449 4.52773,-5.18196 7.6289,-7.58098 9.75505,-7.54636 3.15408,0.0513 10.32474,5.45494 11.74693,8.85213 3.3829,8.08072 -4.63455,19.63154 -21.36618,30.78247 -19.47418,12.97872 -37.50631,18.05342 -52.61593,14.80744 z"
   style="fill:#000000;stroke:#ffffff;stroke-width:0.603302" /><path
   id="path1047"
   d="m 166.07777,282.49685 c -7.88623,-1.37309 -15.41813,-7.17207 -19.14258,-14.7383 -1.97982,-4.02202 -2.06931,-4.49224 -2.06931,-10.87359 0,-6.49612 0.059,-6.78909 2.26436,-11.2514 7.77018,-15.7219 27.74546,-19.67786 40.61847,-8.04419 12.48899,11.28662 10.99288,31.37388 -3.03442,40.74095 -5.39597,3.6033 -12.60925,5.21595 -18.63652,4.16653 z m 9.05635,-12.75405 c 0.41412,-0.0492 0.75294,-0.33135 0.75294,-0.62698 0,-0.29563 0.24791,-0.38429 0.5509,-0.19703 0.303,0.18727 0.64183,0.1355 0.75295,-0.11504 0.11112,-0.25053 1.28627,-1.41006 2.61144,-2.57672 1.32518,-1.16667 2.48895,-2.31375 2.58617,-2.54907 0.0972,-0.23532 0.61641,-1.44925 1.15376,-2.69761 1.27389,-2.95951 1.27389,-9.4106 0,-12.37011 -0.53735,-1.24836 -1.05654,-2.46229 -1.15376,-2.69761 -0.0972,-0.23532 -1.26099,-1.3824 -2.58617,-2.54907 -1.32517,-1.16666 -2.50032,-2.32619 -2.61144,-2.57673 -0.11112,-0.25053 -0.44995,-0.3023 -0.75295,-0.11503 -0.30299,0.18726 -0.5509,0.0986 -0.5509,-0.19704 0,-0.62633 -0.12358,-0.64604 -5.89224,-0.93979 -2.4125,-0.12285 -4.53194,0.0122 -4.70986,0.30007 -0.17792,0.28789 -0.57583,0.36749 -0.88423,0.17688 -0.3084,-0.1906 -0.56073,-0.0435 -0.56073,0.3269 0,0.3704 -0.24791,0.52024 -0.55091,0.33298 -0.30299,-0.18727 -0.64182,-0.1355 -0.75294,0.11503 -0.11112,0.25054 -1.28627,1.41007 -2.61144,2.57673 -1.32518,1.16667 -2.4627,2.2509 -2.52782,2.40941 -0.0651,0.15852 -0.58431,1.37244 -1.15375,2.69762 -1.33226,3.10035 -1.36202,9.48109 -0.0584,12.50976 0.53735,1.24836 1.05653,2.46229 1.15375,2.69761 0.0972,0.23532 1.26099,1.3824 2.58617,2.54907 1.32517,1.16666 2.50033,2.32619 2.61144,2.57672 0.11112,0.25054 0.44995,0.30231 0.75295,0.11504 0.30299,-0.18726 0.5509,-0.0374 0.5509,0.33297 0,0.3704 0.25233,0.51751 0.56073,0.3269 0.3084,-0.1906 0.70631,-0.111 0.88423,0.17688 0.26003,0.42074 6.26627,0.41297 9.84916,-0.0127 z"
   style="fill:#ffe680;stroke:#ffffff;stroke-width:0.603302" /><path
   id="path1049"
   d="m 337.31765,282.43954 c -11.33881,-1.87899 -20.63876,-12.11755 -21.51359,-23.68489 -0.80579,-10.65429 5.07058,-20.81502 14.66251,-25.35273 13.14408,-6.21815 28.39017,-0.5985 34.73914,12.80471 1.80673,3.81415 1.92841,4.48988 1.92841,10.70957 0,6.24672 -0.11341,6.86889 -1.92138,10.54117 -1.05676,2.14645 -2.8847,5.02795 -4.06208,6.40334 -5.63273,6.58005 -15.17259,10.01398 -23.83301,8.57883 z m 8.8847,-11.49204 c 0.41412,-0.0492 0.75294,-0.33134 0.75294,-0.62697 0,-0.29563 0.24791,-0.3843 0.55091,-0.19703 0.303,0.18726 0.64182,0.13549 0.75294,-0.11504 0.11112,-0.25054 1.28627,-1.41006 2.61145,-2.57673 1.32517,-1.16666 2.48895,-2.31374 2.58617,-2.54906 0.0972,-0.23533 0.6164,-1.44925 1.15375,-2.69762 1.27389,-2.9595 1.27389,-9.4106 0,-12.3701 -0.53735,-1.24837 -1.05654,-2.46229 -1.15375,-2.69762 -0.0972,-0.23532 -1.261,-1.3824 -2.58617,-2.54906 -1.32518,-1.16667 -2.50033,-2.32619 -2.61145,-2.57673 -0.11112,-0.25053 -0.44994,-0.3023 -0.75294,-0.11504 -0.303,0.18727 -0.55091,0.0986 -0.55091,-0.19703 0,-0.62634 -0.12358,-0.64605 -5.89224,-0.93979 -2.4125,-0.12285 -4.53193,0.0122 -4.70985,0.30007 -0.17793,0.28789 -0.57583,0.36748 -0.88423,0.17688 -0.30841,-0.1906 -0.56073,-0.0435 -0.56073,0.3269 0,0.3704 -0.24791,0.52024 -0.55091,0.33297 -0.303,-0.18726 -0.64182,-0.13549 -0.75294,0.11504 -0.11112,0.25054 -1.28627,1.41006 -2.61145,2.57673 -1.32518,1.16666 -2.46269,2.2509 -2.52782,2.40941 -0.0651,0.15851 -0.58431,1.37244 -1.15375,2.69761 -1.33225,3.10035 -1.36201,9.4811 -0.0584,12.50976 0.53735,1.24837 1.05654,2.46229 1.15376,2.69762 0.0972,0.23532 1.26099,1.3824 2.58616,2.54906 1.32518,1.16667 2.50033,2.32619 2.61145,2.57673 0.11112,0.25053 0.44994,0.3023 0.75294,0.11504 0.303,-0.18727 0.55091,-0.0374 0.55091,0.33297 0,0.3704 0.25232,0.5175 0.56073,0.3269 0.3084,-0.1906 0.7063,-0.11101 0.88423,0.17688 0.26003,0.42074 6.26626,0.41297 9.84915,-0.0127 z"
   style="fill:#ffe680;stroke:#ffffff;stroke-width:0.603302" /><path
   d="m 324.26,65.594252 c -0.98002,0.04225 -1.9157,-0.329813 -2.88411,-0.374407 -4.40869,-0.203018 -9.34252,0.116054 -13.64604,0.287879 -12.7984,0.510998 -9.36045,0.374175 -22.8282,1.005993 -17.04757,0.747184 -34.10628,1.272002 -51.16826,1.536995 0,0 -14.47476,10.61156 -14.47476,10.61156 v 0 c 17.50769,-1.193821 35.0332,-2.155426 52.57809,-2.590022 8.5455,-0.160261 13.14425,-0.359865 21.49217,-0.112015 4.55312,0.135182 9.4847,0.177486 13.87297,1.661409 0,0 17.05814,-12.027392 17.05814,-12.027392 z"
   id="path1111"
   style="opacity:0;fill:#0000ff;stroke:#ffffff;stroke-width:1.00157" /><path
   d="m 233.25407,74.776733 c 15.83243,-1.363734 31.73921,-1.120365 47.60363,-0.628644 2.8533,0.144991 5.70659,0.289982 8.55988,0.434973 0,0 14.15878,-10.215415 14.15878,-10.215415 v 0 c -2.99219,-0.04886 -5.98439,-0.09773 -8.97659,-0.146587 -5.40821,-0.127785 -14.92802,-0.349256 -20.31015,-0.490468 -4.39255,-0.115249 -12.59469,-0.317741 -17.22802,-0.58038 -1.75977,-0.09975 -4.88865,-0.396111 -6.99228,-0.590474 0,0 -16.81525,12.216995 -16.81525,12.216995 z"
   id="path1113"
   style="opacity:0;fill:none;stroke:#ffffff;stroke-width:1.00157" /><circle
   r="0.70314789"
   cy="75.896469"
   cx="267.4447"
   style="fill:#000000;stroke:#ffffff"
   id="path1115" /><path
   d="m 281.39829,58.359584 c -14.39904,0.121936 -28.79723,0.263845 -43.1969,0.305559 -3.79775,-0.02651 -7.59541,-0.08403 -11.39326,-0.07952 -4.34235,0.0052 -8.68425,0.111257 -13.0266,0.108523 -10.10771,-0.0064 -20.20991,-0.287534 -30.31122,-0.609289 0,0 -14.23088,10.335359 -14.23088,10.335359 v 0 c 10.58262,-0.274181 21.1675,-0.524657 31.75498,-0.444913 4.18498,0.03152 8.36848,0.17331 12.5532,0.229442 3.78958,0.05083 7.5796,0.06096 11.36939,0.09145 13.16616,0.312429 26.37926,0.51667 39.46835,2.103646 0,0 17.01294,-12.040258 17.01294,-12.040258 z"
   id="path1117"
   style="opacity:0;fill:#ff0000;stroke:#ffffff;stroke-width:1.00157" /><path
   d="m 179.24239,50.028658 c 0.49244,0.01519 0.98466,0.04928 1.47732,0.04557 9.19854,-0.06935 -3.24346,-0.137046 8.20958,-0.143132 5.23229,-0.0028 10.45405,0.192905 15.68002,0.422471 6.14867,0.418734 12.30176,0.797535 18.44675,1.268165 3.29955,0.462925 6.61417,0.580151 9.94128,0.574123 3.91256,0.01429 7.83189,-0.02889 11.7337,0.297149 0,0 16.71168,-11.947101 16.71168,-11.947101 v 0 c -4.03134,-0.284607 -8.06767,-0.002 -12.10483,-0.174783 -3.28008,-0.136479 -6.55851,-0.290342 -9.83258,-0.536687 -6.49345,-0.35912 -13.01129,-0.195259 -19.50636,-0.563891 -7.94252,-0.317162 -15.91947,-0.370061 -23.82159,-1.289816 0,0 -16.93497,12.047935 -16.93497,12.047935 z"
   id="path1119"
   style="opacity:0;fill:#ff0000;stroke:#ffffff;stroke-width:1.00157" /><path
   d="m 179.24859,52.47071 c 9.61213,-0.100157 19.22494,-0.213564 28.83888,-0.122885 6.76421,0.129709 13.55635,0.249551 20.26672,1.18137 0.51771,0.110458 1.04006,0.201052 1.55313,0.331375 1.79432,0.455766 1.59732,0.502441 3.36293,1.074806 2.35915,0.764772 4.74503,1.422328 7.14397,2.047606 4.49654,1.289084 9.06652,2.206662 13.68482,2.913756 0,0 16.60086,-11.7099 16.60086,-11.7099 v 0 c -4.65165,-0.600266 -9.32895,-1.098148 -13.83105,-2.504612 -2.35202,-0.666035 -2.53766,-0.685063 -4.76952,-1.439771 -1.81669,-0.614322 -3.59573,-1.369915 -5.41718,-1.964273 -0.56743,-0.185159 -1.1515,-0.314781 -1.72725,-0.472171 -2.47118,-0.326638 -4.86144,-0.36294 -7.35716,-0.369911 -4.84542,-0.01353 -9.69118,-0.02776 -14.53625,0.0476 -8.99545,-0.03443 -18.02681,-0.05747 -26.97791,-1.047951 0,0 -16.83499,12.034964 -16.83499,12.034964 z"
   id="path1121"
   style="opacity:0;fill:#ff0000;stroke:#ffffff;stroke-width:1.00157" /><path
   d="m 243.1721,56.63873 c 6.96444,2.097265 14.08327,3.613757 21.08466,5.586278 4.74046,1.433356 9.58566,2.719437 14.06939,4.86627 1.24439,0.689503 2.58833,1.121747 3.95357,1.493185 0,0 16.95573,-11.737793 16.95573,-11.737793 v 0 c -1.30512,-0.245096 -2.55501,-0.582656 -3.75934,-1.159116 -4.94882,-2.028842 -10.34133,-2.759458 -15.44726,-4.280528 -6.58483,-1.807307 -13.29628,-3.472091 -19.54166,-6.274048 0,0 -17.31509,11.505752 -17.31509,11.505752 z"
   id="path1123"
   style="opacity:0;fill:#ff0000;stroke:#ffffff;stroke-width:1.00157" /><path
   d="m 164.32928,48.636755 c 3.64308,1.362984 7.2869,2.735018 10.95201,4.04129 5.28887,2.101517 10.91934,2.829997 16.53615,3.423288 6.12881,0.482477 12.27647,0.592833 18.41368,0.929833 14.88515,0.815597 16.03857,-20.235179 1.15343,-21.050776 v 0 c -5.79632,-0.316949 -11.6006,-0.443169 -17.39177,-0.848881 -3.95472,-0.400749 -7.92823,-0.791496 -11.64203,-2.315193 -3.55488,-1.263379 -7.09149,-2.586245 -10.61896,-3.919583 -13.95831,-5.234364 -21.36082,14.505658 -7.40251,19.740022 z"
   id="path1125"
   style="opacity:0;fill:#ff0000;stroke:#ffffff;stroke-width:1.00157" /><path
   d="m 265.52603,34.661221 c -6.55421,-0.957611 -13.24878,-0.09031 -19.79487,0.5176 -4.27642,0.397133 -11.38217,1.125004 -15.62602,1.554302 -10.56341,0.962141 -21.1203,2.152799 -31.50304,4.382841 -6.72072,1.443501 -8.48619,2.080369 -15.01793,3.978891 -10.38713,3.205276 -20.42758,7.399929 -30.52893,11.389465 -4.32926,1.772875 -8.67856,3.495256 -13.02299,5.230109 -0.54403,0.243371 -1.08805,0.486743 -1.63208,0.730114 -13.56776,6.176469 -4.83291,25.364175 8.73485,19.187706 v 0 c 0.23947,-0.113301 0.47893,-0.226602 0.7184,-0.339903 4.31877,-1.725943 8.64395,-3.435594 12.94735,-5.200059 9.50084,-3.75369 18.94237,-7.705372 28.69814,-10.761785 5.51138,-1.621279 7.36657,-2.273916 13.02866,-3.500864 9.78592,-2.120565 19.7402,-3.216128 29.69954,-4.121223 4.52312,-0.457617 10.80405,-1.10178 15.35826,-1.528939 4.2048,-0.394386 8.91235,-1.02182 13.17219,-0.902092 0.3349,0.0094 0.66476,0.08409 0.99715,0.126129 14.66701,2.666731 18.43834,-18.075562 3.77132,-20.742292 z"
   id="path1127"
   style="opacity:0;fill:#ff0000;stroke:#ffffff;stroke-width:1.00157" /></svg>
